<?xml version="1.0" encoding="utf-8"?>
<!-- Generator: Adobe Illustrator 16.0.2, SVG Export Plug-In . SVG Version: 6.00 Build 0)  -->
<!DOCTYPE svg PUBLIC "-//W3C//DTD SVG 1.1//EN" "http://www.w3.org/Graphics/SVG/1.1/DTD/svg11.dtd">
<svg version="1.1" id="圖層_1" xmlns="http://www.w3.org/2000/svg" xmlns:xlink="http://www.w3.org/1999/xlink" x="0px" y="0px"
	 width="34.398px" height="30.953px" viewBox="0 0 34.398 30.953" enable-background="new 0 0 34.398 30.953" xml:space="preserve">
<g>
	<polygon fill="#383838" points="18.943,0.287 16.876,7.963 22.179,1.549 	"/>
	<polygon fill="#383838" points="14.693,0 11.514,1.374 16.727,7.759 	"/>
	<path fill="#383838" d="M3.64,21.105l0.003-0.154c-0.09-0.832-0.097-1.686-0.013-2.545c0.025-0.271,0.062-0.531,0.104-0.789v-0.043
		L0,19.031L3.64,21.105z"/>
	<path fill="#383838" d="M33.754,16.22c-0.758-1.604-1.94-2.869-3.365-3.899C26.43,9.46,21.947,8.229,17.117,8.172
		c-1.14-0.012-2.297,0.12-3.421,0.311c-0.073,0.012-0.146,0.03-0.22,0.044c1.964,1.122,3.48,2.688,4.52,4.674
		c1.219,2.326,1.705,4.865,1.44,7.546c-0.327,3.361-1.667,6.094-3.993,8.117c-0.751,0.654-1.583,1.209-2.47,1.676
		c1.388,0.313,2.817,0.428,4.281,0.41c1.357-0.117,2.7-0.359,4.025-0.654c3.132-0.694,6.032-1.95,8.601-3.896
		c2.003-1.518,3.665-3.309,4.318-5.842C34.581,19.05,34.406,17.602,33.754,16.22z"/>
	<path fill="#383838" d="M13.971,20.83c0.254-2.617-0.219-5.094-1.402-7.361c-0.733-1.399-1.737-2.585-2.966-3.553
		c-0.652,0.371-1.277,0.805-1.865,1.316c-2.175,1.897-3.25,4.352-3.524,7.174c-0.229,2.338,0.183,4.578,1.273,6.672
		c0.938,1.791,2.291,3.16,4.007,4.135c0.206-0.155,0.403-0.315,0.596-0.483C12.345,26.762,13.651,24.105,13.971,20.83z"/>
	<path fill="#383838" d="M19.107,20.716c0.253-2.618-0.215-5.095-1.403-7.361c-1.069-2.042-2.666-3.625-4.741-4.726
		c-1.071,0.242-2.093,0.609-3.05,1.114c1.218,0.98,2.217,2.172,2.947,3.572c1.216,2.326,1.701,4.865,1.438,7.546
		c-0.328,3.363-1.671,6.094-3.991,8.115c-0.159,0.141-0.328,0.271-0.497,0.402c0.168,0.088,0.335,0.182,0.51,0.264
		c0.711,0.332,1.438,0.582,2.174,0.775c0.988-0.484,1.906-1.086,2.733-1.808C17.481,26.648,18.785,23.99,19.107,20.716z"/>
</g>
<path fill="#AFAFAF" d="M19.434,20.748c0.265-2.682-0.224-5.221-1.44-7.545c-1.037-1.986-2.556-3.552-4.52-4.674
	C13.3,8.56,13.129,8.593,12.96,8.631c2.075,1.101,3.672,2.684,4.741,4.726c1.188,2.267,1.656,4.743,1.403,7.359
	c-0.321,3.275-1.626,5.935-3.879,7.898c-0.828,0.721-1.745,1.32-2.733,1.807c0.158,0.041,0.316,0.084,0.479,0.119
	c0.887-0.467,1.719-1.021,2.47-1.676C17.767,26.841,19.107,24.109,19.434,20.748z"/>
<path fill="#AFAFAF" d="M14.3,20.861c0.263-2.682-0.225-5.22-1.438-7.546c-0.73-1.4-1.729-2.591-2.947-3.572
	C9.81,9.798,9.706,9.857,9.604,9.915c1.229,0.968,2.23,2.154,2.966,3.553c1.186,2.267,1.656,4.743,1.402,7.362
	c-0.32,3.275-1.626,5.933-3.884,7.896c-0.189,0.168-0.39,0.328-0.596,0.484c0.104,0.061,0.211,0.111,0.316,0.168
	c0.169-0.133,0.338-0.264,0.497-0.402C12.629,26.955,13.971,24.225,14.3,20.861z"/>
<rect x="-291.434" y="-160.88" fill="#FFFFFF" width="192" height="192.001"/>
<g>
	<g>
		<polygon fill="#6D6D6D" points="-196.639,-138.338 -202.59,-100.915 -180.663,-133.981 		"/>
		<polygon fill="#6D6D6D" points="-216.93,-137.569 -231.309,-129.46 -203.395,-101.809 		"/>
		<path fill="#6D6D6D" d="M-258.74-31.976l-0.063-0.733c-0.843-3.899-1.304-7.942-1.337-12.059c-0.011-1.295,0.025-2.548,0.1-3.792
			l-0.022-0.205l-16.976,8.782L-258.74-31.976z"/>
		<path fill="#6D6D6D" d="M-118.439-70.238c-4.396-7.222-10.638-12.626-17.909-16.795c-20.202-11.577-42.073-15.164-64.998-13.013
			c-5.404,0.517-10.823,1.721-16.056,3.19c-0.345,0.095-0.678,0.217-1.019,0.318c9.872,4.334,17.846,10.997,23.763,19.893
			c6.945,10.412,10.524,22.208,10.617,35.047c0.136,16.104-4.845,29.724-14.858,40.482c-3.23,3.483-6.897,6.525-10.867,9.184
			c6.735,0.791,13.57,0.616,20.501-0.201c6.38-1.236,12.62-3.059,18.757-5.121c14.494-4.863,27.619-12.271,38.813-22.78
			c8.734-8.2,15.715-17.523,17.542-29.858C-113.098-57.238-114.654-64.014-118.439-70.238z"/>
		<path fill="#6D6D6D" d="M-209.905-38.462c-0.109-12.535-3.592-24.04-10.339-34.193c-4.183-6.263-9.536-11.381-15.841-15.354
			c-2.911,2.087-5.656,4.458-8.182,7.174c-9.358,10.083-13.224,22.262-13.114,35.777c0.095,11.197,3.163,21.611,9.388,30.989
			c5.342,8.02,12.446,13.832,21.063,17.591c0.898-0.845,1.759-1.703,2.582-2.594C-214.637-9.527-209.78-22.774-209.905-38.462z"/>
		<path fill="#6D6D6D" d="M-185.615-41.58c-0.114-12.538-3.573-24.043-10.349-34.188c-6.093-9.143-14.456-15.847-24.845-20.026
			c-4.956,1.686-9.615,3.936-13.898,6.811c6.264,4.035,11.597,9.185,15.766,15.454c6.926,10.418,10.504,22.21,10.604,35.053
			c0.13,16.106-4.865,29.724-14.85,40.471c-0.685,0.747-1.42,1.452-2.154,2.162c0.84,0.332,1.679,0.688,2.548,0.99
			c3.537,1.218,7.102,2.038,10.689,2.589c4.447-2.797,8.498-6.104,12.056-9.939C-190.347-12.642-185.501-25.896-185.615-41.58z"/>
	</g>
	<path fill="#AFAFAF" d="M-184.048-41.591c-0.095-12.844-3.68-24.639-10.617-35.047c-5.913-8.896-13.892-15.559-23.765-19.893
		c-0.808,0.24-1.601,0.481-2.383,0.746c10.39,4.179,18.753,10.882,24.845,20.027c6.771,10.151,10.235,21.651,10.348,34.185
		c0.115,15.688-4.732,28.944-14.426,39.388c-3.564,3.83-7.61,7.134-12.056,9.936c0.776,0.115,1.546,0.24,2.328,0.324
		c3.97-2.657,7.636-5.703,10.868-9.184C-188.895-11.873-183.913-25.493-184.048-41.591z"/>
	<path fill="#AFAFAF" d="M-208.333-38.479c-0.1-12.843-3.682-24.633-10.603-35.052c-4.169-6.269-9.503-11.415-15.767-15.454
		c-0.464,0.311-0.929,0.644-1.382,0.97c6.309,3.971,11.653,9.091,15.841,15.354c6.752,10.153,10.23,21.654,10.34,34.198
		c0.124,15.688-4.732,28.934-14.451,39.38c-0.813,0.892-1.682,1.751-2.581,2.6c0.525,0.229,1.056,0.421,1.589,0.638
		c0.733-0.715,1.469-1.422,2.153-2.162C-213.198-8.754-208.202-22.371-208.333-38.479z"/>
</g>
</svg>
