<?xml version="1.0" encoding="utf-8"?>
<!-- Generator: Adobe Illustrator 16.0.2, SVG Export Plug-In . SVG Version: 6.00 Build 0)  -->
<!DOCTYPE svg PUBLIC "-//W3C//DTD SVG 1.1//EN" "http://www.w3.org/Graphics/SVG/1.1/DTD/svg11.dtd">
<svg version="1.1" id="圖層_1" xmlns="http://www.w3.org/2000/svg" xmlns:xlink="http://www.w3.org/1999/xlink" x="0px" y="0px"
	 width="34.398px" height="30.953px" viewBox="0 0 34.398 30.953" enable-background="new 0 0 34.398 30.953" xml:space="preserve">
<g>
	<polygon fill="#383838" points="18.943,0.287 16.876,7.963 22.179,1.549 	"/>
	<polygon fill="#383838" points="14.693,0 11.514,1.374 16.727,7.759 	"/>
	<path fill="#383838" d="M3.64,21.106l0.003-0.155c-0.09-0.832-0.096-1.685-0.012-2.545c0.026-0.27,0.061-0.531,0.104-0.789v-0.043
		L0,19.031L3.64,21.106z"/>
	<path fill="#383838" d="M33.754,16.22c-0.758-1.604-1.941-2.869-3.366-3.899c-3.959-2.861-8.442-4.092-13.272-4.149
		c-1.139-0.012-2.296,0.12-3.42,0.311c-0.074,0.012-0.146,0.03-0.22,0.044c1.964,1.122,3.481,2.688,4.519,4.674
		c1.219,2.326,1.705,4.865,1.441,7.546c-0.327,3.362-1.667,6.094-3.993,8.117c-0.751,0.655-1.583,1.209-2.47,1.676
		c1.388,0.314,2.818,0.428,4.282,0.41c1.358-0.117,2.7-0.359,4.026-0.654c3.131-0.694,6.032-1.95,8.6-3.896
		c2.003-1.517,3.665-3.308,4.318-5.841C34.581,19.05,34.406,17.601,33.754,16.22z"/>
	<path fill="#383838" d="M13.971,20.83c0.254-2.617-0.218-5.094-1.402-7.361c-0.734-1.399-1.738-2.585-2.966-3.553
		c-0.653,0.371-1.278,0.805-1.865,1.316c-2.175,1.897-3.25,4.352-3.525,7.174c-0.228,2.338,0.182,4.579,1.274,6.672
		c0.938,1.791,2.291,3.16,4.006,4.135c0.206-0.157,0.404-0.316,0.596-0.484C12.345,26.762,13.651,24.105,13.971,20.83z"/>
	<path fill="#383838" d="M19.107,20.716c0.253-2.619-0.215-5.095-1.404-7.361c-1.069-2.042-2.666-3.625-4.741-4.726
		c-1.072,0.242-2.093,0.609-3.05,1.114c1.218,0.98,2.217,2.172,2.948,3.572c1.215,2.326,1.701,4.865,1.439,7.546
		c-0.329,3.363-1.671,6.094-3.992,8.116c-0.159,0.14-0.328,0.271-0.497,0.403c0.168,0.088,0.335,0.181,0.51,0.262
		c0.711,0.332,1.437,0.582,2.173,0.777c0.989-0.485,1.907-1.086,2.734-1.808C17.481,26.648,18.785,23.99,19.107,20.716z"/>
</g>
<path fill="#AFAFAF" d="M19.434,20.748c0.264-2.682-0.223-5.221-1.441-7.546c-1.037-1.986-2.555-3.552-4.519-4.674
	c-0.173,0.032-0.344,0.065-0.513,0.103c2.075,1.101,3.672,2.684,4.741,4.726c1.188,2.267,1.657,4.743,1.404,7.36
	c-0.322,3.275-1.626,5.934-3.879,7.898c-0.828,0.721-1.745,1.32-2.734,1.807c0.159,0.041,0.317,0.084,0.478,0.119
	c0.887-0.467,1.719-1.021,2.47-1.676C17.767,26.841,19.107,24.109,19.434,20.748z"/>
<path fill="#AFAFAF" d="M14.3,20.861c0.262-2.681-0.225-5.22-1.439-7.546c-0.731-1.4-1.73-2.591-2.948-3.572
	c-0.104,0.055-0.208,0.114-0.31,0.172c1.229,0.968,2.231,2.154,2.966,3.553c1.185,2.267,1.656,4.743,1.402,7.362
	c-0.32,3.275-1.626,5.932-3.883,7.897c-0.19,0.168-0.39,0.327-0.596,0.485c0.104,0.059,0.211,0.111,0.317,0.168
	c0.169-0.133,0.338-0.264,0.497-0.403C12.629,26.955,13.971,24.225,14.3,20.861z"/>
</svg>
